<svg id="Layer_1" data-name="Layer 1" xmlns="http://www.w3.org/2000/svg" viewBox="0 0 104 158">
  <title>money-mobile</title>
  <g>
    <rect x="-0.1" y="116.04" width="84.02" height="42.45" fill="#b1e3e3"/>
    <path d="M72,153.55H11.82v-.87a6.11,6.11,0,0,0-6.1-6.1H4.84V128h.87a6.11,6.11,0,0,0,6.1-6.1V121H72v.87a6.11,6.11,0,0,0,6.1,6.1H79v18.61H78.1a6.11,6.11,0,0,0-6.1,6.1ZM13.51,151.8H70.3a7.86,7.86,0,0,1,6.93-6.93V129.65a7.86,7.86,0,0,1-6.93-6.93H13.51a7.86,7.86,0,0,1-6.93,6.93v15.22A7.86,7.86,0,0,1,13.51,151.8Z" fill="#fff"/>
    <path d="M83.91,116v42.45H-.1V116h84m4-4h-92v50.45h92V112Z" fill="#ff9e16"/>
    <g>
      <circle cx="41.91" cy="137.26" r="10.95" fill="#fff"/>
      <circle cx="63.42" cy="137.26" r="2.06" fill="#fff"/>
      <circle cx="19.81" cy="137.26" r="2.06" fill="#fff"/>
    </g>
  </g>
  <g>
    <rect x="-0.1" y="98.6" width="84.02" height="42.45" fill="#b1e3e3"/>
    <path d="M72,136.1H11.82v-.87a6.11,6.11,0,0,0-6.1-6.1H4.84V110.51h.87a6.11,6.11,0,0,0,6.1-6.1v-.87H72v.87a6.11,6.11,0,0,0,6.1,6.1H79v18.61H78.1a6.11,6.11,0,0,0-6.1,6.1Zm-58.48-1.74H70.3a7.86,7.86,0,0,1,6.93-6.93V112.21a7.86,7.86,0,0,1-6.93-6.93H13.51a7.86,7.86,0,0,1-6.93,6.93v15.22A7.86,7.86,0,0,1,13.51,134.36Z" fill="#fff"/>
    <path d="M83.91,98.6V141H-.1V98.6h84m4-4h-92V145h92V94.6Z" fill="#ff9e16"/>
    <g>
      <circle cx="41.91" cy="119.82" r="10.95" fill="#fff"/>
      <circle cx="63.42" cy="119.82" r="2.06" fill="#fff"/>
      <circle cx="19.81" cy="119.82" r="2.06" fill="#fff"/>
    </g>
  </g>
  <g>
    <rect x="-0.1" y="81.15" width="84.02" height="42.45" fill="#b1e3e3"/>
    <path d="M72,118.66H11.82v-.87a6.11,6.11,0,0,0-6.1-6.1H4.84V93.07h.87a6.11,6.11,0,0,0,6.1-6.1v-.87H72V87a6.11,6.11,0,0,0,6.1,6.1H79v18.61H78.1a6.11,6.11,0,0,0-6.1,6.1Zm-58.48-1.74H70.3A7.86,7.86,0,0,1,77.23,110V94.77a7.86,7.86,0,0,1-6.93-6.93H13.51a7.86,7.86,0,0,1-6.93,6.93V110A7.86,7.86,0,0,1,13.51,116.92Z" fill="#fff"/>
    <path d="M83.91,81.15V123.6H-.1V81.15h84m4-4h-92V127.6h92V77.15Z" fill="#ff9e16"/>
    <g>
      <circle cx="41.91" cy="102.38" r="10.95" fill="#fff"/>
      <circle cx="63.42" cy="102.38" r="2.06" fill="#fff"/>
      <circle cx="19.81" cy="102.38" r="2.06" fill="#fff"/>
    </g>
  </g>
  <g>
    <rect x="-0.1" y="63.71" width="84.02" height="42.45" fill="#b1e3e3"/>
    <path d="M72,101.22H11.82v-.87a6.11,6.11,0,0,0-6.1-6.1H4.84V75.63h.87a6.11,6.11,0,0,0,6.1-6.1v-.87H72v.87a6.11,6.11,0,0,0,6.1,6.1H79V94.24H78.1a6.11,6.11,0,0,0-6.1,6.1ZM13.51,99.47H70.3a7.86,7.86,0,0,1,6.93-6.93V77.33A7.86,7.86,0,0,1,70.3,70.4H13.51a7.86,7.86,0,0,1-6.93,6.93V92.55A7.86,7.86,0,0,1,13.51,99.47Z" fill="#fff"/>
    <path d="M83.91,63.71v42.45H-.1V63.71h84m4-4h-92v50.45h92V59.71Z" fill="#ff9e16"/>
    <g>
      <circle cx="41.91" cy="84.94" r="10.95" fill="#fff"/>
      <circle cx="63.42" cy="84.94" r="2.06" fill="#fff"/>
      <circle cx="19.81" cy="84.94" r="2.06" fill="#fff"/>
    </g>
  </g>
  <g>
    <rect x="-0.1" y="46.27" width="84.02" height="42.45" fill="#b1e3e3"/>
    <path d="M72,83.78H11.82V82.9a6.11,6.11,0,0,0-6.1-6.1H4.84V58.19h.87a6.11,6.11,0,0,0,6.1-6.1v-.87H72v.87a6.11,6.11,0,0,0,6.1,6.1H79V76.8H78.1A6.11,6.11,0,0,0,72,82.9ZM13.51,82H70.3a7.86,7.86,0,0,1,6.93-6.93V59.88A7.86,7.86,0,0,1,70.3,53H13.51a7.86,7.86,0,0,1-6.93,6.93V75.1A7.86,7.86,0,0,1,13.51,82Z" fill="#fff"/>
    <path d="M83.91,46.27V88.72H-.1V46.27h84m4-4h-92V92.72h92V42.27Z" fill="#ff9e16"/>
    <g>
      <circle cx="41.91" cy="67.49" r="10.95" fill="#fff"/>
      <circle cx="63.42" cy="67.49" r="2.06" fill="#fff"/>
      <circle cx="19.81" cy="67.49" r="2.06" fill="#fff"/>
    </g>
  </g>
  <g>
    <rect x="-0.1" y="28.82" width="84.02" height="42.45" fill="#b1e3e3"/>
    <path d="M72,66.33H11.82v-.87a6.11,6.11,0,0,0-6.1-6.1H4.84V40.74h.87a6.11,6.11,0,0,0,6.1-6.1v-.87H72v.87a6.11,6.11,0,0,0,6.1,6.1H79V59.36H78.1a6.11,6.11,0,0,0-6.1,6.1ZM13.51,64.59H70.3a7.86,7.86,0,0,1,6.93-6.93V42.44a7.86,7.86,0,0,1-6.93-6.93H13.51a7.86,7.86,0,0,1-6.93,6.93V57.66A7.86,7.86,0,0,1,13.51,64.59Z" fill="#fff"/>
    <path d="M83.91,28.82V71.28H-.1V28.82h84m4-4h-92V75.28h92V24.82Z" fill="#ff9e16"/>
    <g>
      <circle cx="41.91" cy="50.05" r="10.95" fill="#fff"/>
      <circle cx="63.42" cy="50.05" r="2.06" fill="#fff"/>
      <circle cx="19.81" cy="50.05" r="2.06" fill="#fff"/>
    </g>
  </g>
  <g>
    <rect x="-0.1" y="11.32" width="84.02" height="42.45" fill="#b1e3e3"/>
    <path d="M72,48.83H11.82V48a6.11,6.11,0,0,0-6.1-6.1H4.84V23.24h.87a6.11,6.11,0,0,0,6.1-6.1v-.87H72v.87a6.11,6.11,0,0,0,6.1,6.1H79V41.85H78.1A6.11,6.11,0,0,0,72,48ZM13.51,47.08H70.3a7.86,7.86,0,0,1,6.93-6.93V24.93A7.86,7.86,0,0,1,70.3,18H13.51a7.86,7.86,0,0,1-6.93,6.93V40.15A7.86,7.86,0,0,1,13.51,47.08Z" fill="#fff"/>
    <path d="M83.91,11.32V53.77H-.1V11.32h84m4-4h-92V57.77h92V7.32Z" fill="#ff9e16"/>
    <g>
      <circle cx="41.91" cy="32.54" r="10.95" fill="#fff"/>
      <circle cx="63.42" cy="32.54" r="2.06" fill="#fff"/>
      <circle cx="19.81" cy="32.54" r="2.06" fill="#fff"/>
    </g>
  </g>
  <g>
    <circle cx="81.82" cy="18.4" r="20.08" fill="#ff4612" stroke="#ff9e16" stroke-miterlimit="10" stroke-width="3"/>
    <path d="M77.58,22.73A7.12,7.12,0,0,0,82,24.61c1.35,0,2.58-.7,2.58-2.15,0-3-8.46-2.7-8.46-8.08a5.19,5.19,0,0,1,4.7-5V7H83V9.3a7.2,7.2,0,0,1,4.4,1.83L86,13.75a6.49,6.49,0,0,0-3.93-1.55c-1.5,0-2.68.88-2.68,2.13,0,3,8.43,2.45,8.43,8.06A5.16,5.16,0,0,1,83,27.51v2.3H80.83v-2.3a8.41,8.41,0,0,1-5-2.35Z" fill="#fff"/>
  </g>
</svg>
