<svg id="Layer_1" data-name="Layer 1" xmlns="http://www.w3.org/2000/svg" viewBox="0 0 332 222.44">
  <title>money</title>
  <g>
    <g>
      <rect x="-0.22" y="149.73" width="144.25" height="72.89" fill="#b1e3e3"/>
      <path d="M123.56,214.13H20.24v-1.5A10.49,10.49,0,0,0,9.76,202.15H8.26v-32h1.5a10.49,10.49,0,0,0,10.48-10.48v-1.5H123.56v1.5A10.49,10.49,0,0,0,134,170.19h1.5v32H134a10.49,10.49,0,0,0-10.48,10.48Zm-100.41-3h97.5a13.5,13.5,0,0,1,11.9-11.9V173.1a13.5,13.5,0,0,1-11.9-11.9H23.15a13.5,13.5,0,0,1-11.9,11.9v26.13A13.5,13.5,0,0,1,23.15,211.13Z" fill="#fff"/>
      <path d="M144,149.73v72.89H-.22V149.73H144m4-4H-4.22v80.89H148V145.73Z" fill="#ff9e16"/>
      <g>
        <circle cx="71.9" cy="186.17" r="18.79" fill="#fff"/>
        <circle cx="108.84" cy="186.17" r="3.54" fill="#fff"/>
        <circle cx="33.97" cy="186.17" r="3.54" fill="#fff"/>
      </g>
    </g>
    <g>
      <rect x="-0.22" y="119.78" width="144.25" height="72.89" fill="#b1e3e3"/>
      <path d="M123.56,184.18H20.24v-1.5A10.49,10.49,0,0,0,9.76,172.2H8.26v-32h1.5a10.49,10.49,0,0,0,10.48-10.48v-1.5H123.56v1.5A10.49,10.49,0,0,0,134,140.24h1.5v32H134a10.49,10.49,0,0,0-10.48,10.48Zm-100.41-3h97.5a13.5,13.5,0,0,1,11.9-11.9V143.16a13.5,13.5,0,0,1-11.9-11.9H23.15a13.5,13.5,0,0,1-11.9,11.9v26.13A13.5,13.5,0,0,1,23.15,181.19Z" fill="#fff"/>
      <path d="M144,119.78v72.89H-.22V119.78H144m4-4H-4.22v80.89H148V115.78Z" fill="#ff9e16"/>
      <g>
        <circle cx="71.9" cy="156.22" r="18.79" fill="#fff"/>
        <circle cx="108.84" cy="156.22" r="3.54" fill="#fff"/>
        <circle cx="33.97" cy="156.22" r="3.54" fill="#fff"/>
      </g>
    </g>
    <g>
      <rect x="-0.22" y="89.83" width="144.25" height="72.89" fill="#b1e3e3"/>
      <path d="M123.56,154.23H20.24v-1.5A10.49,10.49,0,0,0,9.76,142.25H8.26v-32h1.5A10.49,10.49,0,0,0,20.24,99.81v-1.5H123.56v1.5A10.49,10.49,0,0,0,134,110.29h1.5v32H134a10.49,10.49,0,0,0-10.48,10.48Zm-100.41-3h97.5a13.5,13.5,0,0,1,11.9-11.9V113.21a13.5,13.5,0,0,1-11.9-11.9H23.15a13.5,13.5,0,0,1-11.9,11.9v26.13A13.5,13.5,0,0,1,23.15,151.24Z" fill="#fff"/>
      <path d="M144,89.83v72.89H-.22V89.83H144m4-4H-4.22v80.89H148V85.83Z" fill="#ff9e16"/>
      <g>
        <circle cx="71.9" cy="126.27" r="18.79" fill="#fff"/>
        <circle cx="108.84" cy="126.27" r="3.54" fill="#fff"/>
        <circle cx="33.97" cy="126.27" r="3.54" fill="#fff"/>
      </g>
    </g>
    <g>
      <rect x="158.89" y="149.73" width="144.25" height="72.89" fill="#b1e3e3"/>
      <path d="M282.68,214.13H179.35v-1.5a10.49,10.49,0,0,0-10.48-10.48h-1.5v-32h1.5a10.49,10.49,0,0,0,10.48-10.48v-1.5H282.68v1.5a10.49,10.49,0,0,0,10.48,10.48h1.5v32h-1.5a10.49,10.49,0,0,0-10.48,10.48Zm-100.41-3h97.5a13.5,13.5,0,0,1,11.9-11.9V173.1a13.5,13.5,0,0,1-11.9-11.9h-97.5a13.5,13.5,0,0,1-11.9,11.9v26.13A13.5,13.5,0,0,1,182.27,211.13Z" fill="#fff"/>
      <path d="M303.14,149.73v72.89H158.89V149.73H303.14m4-4H154.89v80.89H307.14V145.73Z" fill="#ff9e16"/>
      <g>
        <circle cx="231.02" cy="186.17" r="18.79" fill="#fff"/>
        <circle cx="267.95" cy="186.17" r="3.54" fill="#fff"/>
        <circle cx="193.08" cy="186.17" r="3.54" fill="#fff"/>
      </g>
    </g>
    <g>
      <rect x="158.89" y="119.78" width="144.25" height="72.89" fill="#b1e3e3"/>
      <path d="M282.68,184.18H179.35v-1.5a10.49,10.49,0,0,0-10.48-10.48h-1.5v-32h1.5a10.49,10.49,0,0,0,10.48-10.48v-1.5H282.68v1.5a10.49,10.49,0,0,0,10.48,10.48h1.5v32h-1.5a10.49,10.49,0,0,0-10.48,10.48Zm-100.41-3h97.5a13.5,13.5,0,0,1,11.9-11.9V143.16a13.5,13.5,0,0,1-11.9-11.9h-97.5a13.5,13.5,0,0,1-11.9,11.9v26.13A13.5,13.5,0,0,1,182.27,181.19Z" fill="#fff"/>
      <path d="M303.14,119.78v72.89H158.89V119.78H303.14m4-4H154.89v80.89H307.14V115.78Z" fill="#ff9e16"/>
      <g>
        <circle cx="231.02" cy="156.22" r="18.79" fill="#fff"/>
        <circle cx="267.95" cy="156.22" r="3.54" fill="#fff"/>
        <circle cx="193.08" cy="156.22" r="3.54" fill="#fff"/>
      </g>
    </g>
    <g>
      <rect x="158.89" y="89.83" width="144.25" height="72.89" fill="#b1e3e3"/>
      <path d="M282.68,154.23H179.35v-1.5a10.49,10.49,0,0,0-10.48-10.48h-1.5v-32h1.5a10.49,10.49,0,0,0,10.48-10.48v-1.5H282.68v1.5a10.49,10.49,0,0,0,10.48,10.48h1.5v32h-1.5a10.49,10.49,0,0,0-10.48,10.48Zm-100.41-3h97.5a13.5,13.5,0,0,1,11.9-11.9V113.21a13.5,13.5,0,0,1-11.9-11.9h-97.5a13.5,13.5,0,0,1-11.9,11.9v26.13A13.5,13.5,0,0,1,182.27,151.24Z" fill="#fff"/>
      <path d="M303.14,89.83v72.89H158.89V89.83H303.14m4-4H154.89v80.89H307.14V85.83Z" fill="#ff9e16"/>
      <g>
        <circle cx="231.02" cy="126.27" r="18.79" fill="#fff"/>
        <circle cx="267.95" cy="126.27" r="3.54" fill="#fff"/>
        <circle cx="193.08" cy="126.27" r="3.54" fill="#fff"/>
      </g>
    </g>
    <g>
      <rect x="158.89" y="59.84" width="144.25" height="72.89" fill="#b1e3e3"/>
      <path d="M282.68,124.24H179.35v-1.5a10.49,10.49,0,0,0-10.48-10.48h-1.5v-32h1.5a10.49,10.49,0,0,0,10.48-10.48v-1.5H282.68v1.5A10.49,10.49,0,0,0,293.16,80.3h1.5v32h-1.5a10.49,10.49,0,0,0-10.48,10.48Zm-100.41-3h97.5a13.5,13.5,0,0,1,11.9-11.9V83.21a13.5,13.5,0,0,1-11.9-11.9h-97.5a13.5,13.5,0,0,1-11.9,11.9v26.13A13.5,13.5,0,0,1,182.27,121.24Z" fill="#fff"/>
      <path d="M303.14,59.84v72.89H158.89V59.84H303.14m4-4H154.89v80.89H307.14V55.84Z" fill="#ff9e16"/>
      <g>
        <circle cx="231.02" cy="96.28" r="18.79" fill="#fff"/>
        <circle cx="267.95" cy="96.28" r="3.54" fill="#fff"/>
        <circle cx="193.08" cy="96.28" r="3.54" fill="#fff"/>
      </g>
    </g>
    <g>
      <rect x="-0.22" y="59.88" width="144.25" height="72.89" fill="#b1e3e3"/>
      <path d="M123.56,124.28H20.24v-1.5A10.49,10.49,0,0,0,9.76,112.3H8.26v-32h1.5A10.49,10.49,0,0,0,20.24,69.86v-1.5H123.56v1.5A10.49,10.49,0,0,0,134,80.35h1.5v32H134a10.49,10.49,0,0,0-10.48,10.48Zm-100.41-3h97.5a13.5,13.5,0,0,1,11.9-11.9V83.26a13.5,13.5,0,0,1-11.9-11.9H23.15a13.5,13.5,0,0,1-11.9,11.9v26.13A13.5,13.5,0,0,1,23.15,121.29Z" fill="#fff"/>
      <path d="M144,59.88v72.89H-.22V59.88H144m4-4H-4.22v80.89H148V55.88Z" fill="#ff9e16"/>
      <g>
        <circle cx="71.9" cy="96.32" r="18.79" fill="#fff"/>
        <circle cx="108.84" cy="96.32" r="3.54" fill="#fff"/>
        <circle cx="33.97" cy="96.32" r="3.54" fill="#fff"/>
      </g>
    </g>
    <g>
      <rect x="-0.22" y="29.93" width="144.25" height="72.89" fill="#b1e3e3"/>
      <path d="M123.56,94.33H20.24v-1.5A10.49,10.49,0,0,0,9.76,82.36H8.26v-32h1.5A10.49,10.49,0,0,0,20.24,39.92v-1.5H123.56v1.5A10.49,10.49,0,0,0,134,50.4h1.5v32H134a10.49,10.49,0,0,0-10.48,10.48Zm-100.41-3h97.5a13.5,13.5,0,0,1,11.9-11.9V53.31a13.5,13.5,0,0,1-11.9-11.9H23.15a13.5,13.5,0,0,1-11.9,11.9V79.44A13.5,13.5,0,0,1,23.15,91.34Z" fill="#fff"/>
      <path d="M144,29.93v72.89H-.22V29.93H144m4-4H-4.22v80.89H148V25.93Z" fill="#ff9e16"/>
      <g>
        <circle cx="71.9" cy="66.38" r="18.79" fill="#fff"/>
        <circle cx="108.84" cy="66.38" r="3.54" fill="#fff"/>
        <circle cx="33.97" cy="66.38" r="3.54" fill="#fff"/>
      </g>
    </g>
    <g>
      <rect x="-0.22" y="-0.02" width="144.25" height="72.89" fill="#b1e3e3"/>
      <path d="M123.56,64.39H20.24v-1.5A10.49,10.49,0,0,0,9.76,52.41H8.26v-32h1.5A10.49,10.49,0,0,0,20.24,10V8.47H123.56V10A10.49,10.49,0,0,0,134,20.45h1.5v32H134a10.49,10.49,0,0,0-10.48,10.48Zm-100.41-3h97.5a13.5,13.5,0,0,1,11.9-11.9V23.36a13.5,13.5,0,0,1-11.9-11.9H23.15a13.5,13.5,0,0,1-11.9,11.9V49.49A13.5,13.5,0,0,1,23.15,61.39Z" fill="#fff"/>
      <path d="M144,0V72.87H-.22V0H144m4-4H-4.22V76.87H148V-4Z" fill="#ff9e16"/>
      <g>
        <circle cx="71.9" cy="36.43" r="18.79" fill="#fff"/>
        <circle cx="108.84" cy="36.43" r="3.54" fill="#fff"/>
        <circle cx="33.97" cy="36.43" r="3.54" fill="#fff"/>
      </g>
    </g>
    <g>
      <circle cx="298.76" cy="53.12" r="34.47" fill="#ff4612" stroke="#ff9e16" stroke-miterlimit="10" stroke-width="3"/>
      <path d="M291.48,60.55s3.31,3.22,7.6,3.22c2.32,0,4.43-1.2,4.43-3.69,0-5.15-14.52-4.64-14.52-13.87,0-4.42,3.31-7.86,8.08-8.63v-4h3.69v4a12.36,12.36,0,0,1,7.56,3.14l-2.41,4.51a11.14,11.14,0,0,0-6.74-2.66c-2.58,0-4.6,1.5-4.6,3.65,0,5.11,14.48,4.21,14.48,13.83,0,4.38-3,8.12-8.29,8.81v4h-3.69v-4a14.45,14.45,0,0,1-8.59-4Z" fill="#fff"/>
    </g>
  </g>
</svg>
